HIERARCHY
ROOT Hips
{
	OFFSET -0.000001 93.996948 3.948254
	CHANNELS 6 Xposition Yposition Zposition Xrotation Yrotation Zrotation
	JOINT Spine1
	{
		OFFSET 0.000032 8.483833 -3.948275
		CHANNELS 6 Xposition Yposition Zposition Xrotation Yrotation Zrotation
		JOINT Spine2
		{
			OFFSET 0.000001 7.550011 -0.000000
			CHANNELS 6 Xposition Yposition Zposition Xrotation Yrotation Zrotation
			JOINT Spine3
			{
				OFFSET 0.000001 7.550003 -0.000001
				CHANNELS 6 Xposition Yposition Zposition Xrotation Yrotation Zrotation
				JOINT Spine4
				{
					OFFSET -0.000030 12.748734 -0.000001
					CHANNELS 6 Xposition Yposition Zposition Xrotation Yrotation Zrotation
					JOINT Neck
					{
						OFFSET 0.000001 20.150330 -0.000031
						CHANNELS 6 Xposition Yposition Zposition Xrotation Yrotation Zrotation
						JOINT Head
						{
							OFFSET -0.000009 11.100937 0.000009
							CHANNELS 6 Xposition Yposition Zposition Xrotation Yrotation Zrotation
							End Site
							{
								OFFSET -0.000003 -11.100937 -0.000006
							}
						}
					}
					JOINT RightShoulder
					{
						OFFSET -7.000000 12.368073 1.903786
						CHANNELS 6 Xposition Yposition Zposition Xrotation Yrotation Zrotation
						JOINT RightArm
						{
							OFFSET -13.607778 -0.000031 -0.000001
							CHANNELS 6 Xposition Yposition Zposition Xrotation Yrotation Zrotation
							JOINT RightForeArm
							{
								OFFSET -27.102148 -0.000046 0.000050
								CHANNELS 6 Xposition Yposition Zposition Xrotation Yrotation Zrotation
								JOINT RightHand
								{
									OFFSET -28.299988 -0.000031 -0.000030
									CHANNELS 6 Xposition Yposition Zposition Xrotation Yrotation Zrotation
									JOINT RightFinger1Metacarpal
									{
										OFFSET -2.077995 -0.102997 2.784805
										CHANNELS 6 Xposition Yposition Zposition Xrotation Yrotation Zrotation
										JOINT RightFinger1Proximal
										{
											OFFSET -3.454681 0.000015 1.994656
											CHANNELS 6 Xposition Yposition Zposition Xrotation Yrotation Zrotation
											JOINT RightFinger1Distal
											{
												OFFSET -3.027802 -0.000031 -0.000007
												CHANNELS 6 Xposition Yposition Zposition Xrotation Yrotation Zrotation
												End Site
												{
													OFFSET 3.027802 0.000015 0.000003
												}
											}
										}
									}
									JOINT RightFinger5Metacarpal
									{
										OFFSET -2.487846 -0.102982 -1.487572
										CHANNELS 6 Xposition Yposition Zposition Xrotation Yrotation Zrotation
										JOINT RightFinger5Proximal
										{
											OFFSET -4.460068 -0.000046 -1.623385
											CHANNELS 6 Xposition Yposition Zposition Xrotation Yrotation Zrotation
											JOINT RightFinger5Medial
											{
												OFFSET -3.500015 0.000000 0.000003
												CHANNELS 6 Xposition Yposition Zposition Xrotation Yrotation Zrotation
												JOINT RightFinger5Distal
												{
													OFFSET -2.199982 0.000015 -0.000002
													CHANNELS 6 Xposition Yposition Zposition Xrotation Yrotation Zrotation
													End Site
													{
														OFFSET 2.199982 0.000000 0.000004
													}
												}
											}
										}
									}
									JOINT RightFinger4Metacarpal
									{
										OFFSET -2.742973 -0.102997 -0.547513
										CHANNELS 6 Xposition Yposition Zposition Xrotation Yrotation Zrotation
										JOINT RightFinger4Proximal
										{
											OFFSET -4.956100 0.000000 -0.873948
											CHANNELS 6 Xposition Yposition Zposition Xrotation Yrotation Zrotation
											JOINT RightFinger4Medial
											{
												OFFSET -4.299995 -0.000061 0.000008
												CHANNELS 6 Xposition Yposition Zposition Xrotation Yrotation Zrotation
												JOINT RightFinger4Distal
												{
													OFFSET -2.773201 0.000015 0.000001
													CHANNELS 6 Xposition Yposition Zposition Xrotation Yrotation Zrotation
													End Site
													{
														OFFSET 2.773193 0.000000 0.000005
													}
												}
											}
										}
									}
									JOINT RightFinger3Metacarpal
									{
										OFFSET -2.767418 -0.102982 0.544732
										CHANNELS 6 Xposition Yposition Zposition Xrotation Yrotation Zrotation
										JOINT RightFinger3Proximal
										{
											OFFSET -5.364998 -0.000046 -0.000019
											CHANNELS 6 Xposition Yposition Zposition Xrotation Yrotation Zrotation
											JOINT RightFinger3Medial
											{
												OFFSET -4.699974 0.000000 0.000005
												CHANNELS 6 Xposition Yposition Zposition Xrotation Yrotation Zrotation
												JOINT RightFinger3Distal
												{
													OFFSET -3.099998 -0.000015 0.000002
													CHANNELS 6 Xposition Yposition Zposition Xrotation Yrotation Zrotation
													End Site
													{
														OFFSET 3.100006 0.000000 0.000005
													}
												}
											}
										}
									}
									JOINT RightFinger2Metacarpal
									{
										OFFSET -2.645569 -0.102982 1.603400
										CHANNELS 6 Xposition Yposition Zposition Xrotation Yrotation Zrotation
										JOINT RightFinger2Proximal
										{
											OFFSET -5.331619 -0.000031 0.940092
											CHANNELS 6 Xposition Yposition Zposition Xrotation Yrotation Zrotation
											JOINT RightFinger2Medial
											{
												OFFSET -4.499969 0.000031 0.000002
												CHANNELS 6 Xposition Yposition Zposition Xrotation Yrotation Zrotation
												JOINT RightFinger2Distal
												{
													OFFSET -2.768509 0.000000 0.000002
													CHANNELS 6 Xposition Yposition Zposition Xrotation Yrotation Zrotation
													End Site
													{
														OFFSET 2.768509 0.000000 0.000004
													}
												}
											}
										}
									}
								}
							}
						}
					}
					JOINT LeftShoulder
					{
						OFFSET 7.000000 12.368057 1.903799
						CHANNELS 6 Xposition Yposition Zposition Xrotation Yrotation Zrotation
						JOINT LeftArm
						{
							OFFSET 13.607780 0.000015 0.000002
							CHANNELS 6 Xposition Yposition Zposition Xrotation Yrotation Zrotation
							JOINT LeftForeArm
							{
								OFFSET 27.102152 -0.000031 0.000091
								CHANNELS 6 Xposition Yposition Zposition Xrotation Yrotation Zrotation
								JOINT LeftHand
								{
									OFFSET 28.299984 -0.000031 0.000006
									CHANNELS 6 Xposition Yposition Zposition Xrotation Yrotation Zrotation
									JOINT LeftFinger5Metacarpal
									{
										OFFSET 2.487846 -0.102997 -1.487590
										CHANNELS 6 Xposition Yposition Zposition Xrotation Yrotation Zrotation
										JOINT LeftFinger5Proximal
										{
											OFFSET 4.460068 -0.000046 -1.623356
											CHANNELS 6 Xposition Yposition Zposition Xrotation Yrotation Zrotation
											JOINT LeftFinger5Medial
											{
												OFFSET 3.499985 0.000000 0.000001
												CHANNELS 6 Xposition Yposition Zposition Xrotation Yrotation Zrotation
												JOINT LeftFinger5Distal
												{
													OFFSET 2.199982 0.000015 0.000011
													CHANNELS 6 Xposition Yposition Zposition Xrotation Yrotation Zrotation
													End Site
													{
														OFFSET -2.199982 0.000000 0.000004
													}
												}
											}
										}
									}
									JOINT LeftFinger4Metacarpal
									{
										OFFSET 2.742973 -0.102982 -0.547558
										CHANNELS 6 Xposition Yposition Zposition Xrotation Yrotation Zrotation
										JOINT LeftFinger4Proximal
										{
											OFFSET 4.956093 -0.000061 -0.873885
											CHANNELS 6 Xposition Yposition Zposition Xrotation Yrotation Zrotation
											JOINT LeftFinger4Medial
											{
												OFFSET 4.299995 0.000031 0.000002
												CHANNELS 6 Xposition Yposition Zposition Xrotation Yrotation Zrotation
												JOINT LeftFinger4Distal
												{
													OFFSET 2.773186 -0.000046 0.000005
													CHANNELS 6 Xposition Yposition Zposition Xrotation Yrotation Zrotation
													End Site
													{
														OFFSET -2.773178 0.000000 0.000004
													}
												}
											}
										}
									}
									JOINT LeftFinger3Metacarpal
									{
										OFFSET 2.767410 -0.102982 0.544737
										CHANNELS 6 Xposition Yposition Zposition Xrotation Yrotation Zrotation
										JOINT LeftFinger3Proximal
										{
											OFFSET 5.364967 -0.000015 -0.000021
											CHANNELS 6 Xposition Yposition Zposition Xrotation Yrotation Zrotation
											JOINT LeftFinger3Medial
											{
												OFFSET 4.699997 0.000046 0.000009
												CHANNELS 6 Xposition Yposition Zposition Xrotation Yrotation Zrotation
												JOINT LeftFinger3Distal
												{
													OFFSET 3.099983 -0.000015 -0.000002
													CHANNELS 6 Xposition Yposition Zposition Xrotation Yrotation Zrotation
													End Site
													{
														OFFSET -3.099976 0.000000 0.000006
													}
												}
											}
										}
									}
									JOINT LeftFinger2Metacarpal
									{
										OFFSET 2.645523 -0.103012 1.603395
										CHANNELS 6 Xposition Yposition Zposition Xrotation Yrotation Zrotation
										JOINT LeftFinger2Proximal
										{
											OFFSET 5.331627 0.000046 0.940115
											CHANNELS 6 Xposition Yposition Zposition Xrotation Yrotation Zrotation
											JOINT LeftFinger2Medial
											{
												OFFSET 4.499977 -0.000046 0.000007
												CHANNELS 6 Xposition Yposition Zposition Xrotation Yrotation Zrotation
												JOINT LeftFinger2Distal
												{
													OFFSET 2.768486 0.000000 -0.000012
													CHANNELS 6 Xposition Yposition Zposition Xrotation Yrotation Zrotation
													End Site
													{
														OFFSET -2.768478 0.000000 0.000004
													}
												}
											}
										}
									}
									JOINT LeftFinger1Metacarpal
									{
										OFFSET 2.077988 -0.103027 2.784891
										CHANNELS 6 Xposition Yposition Zposition Xrotation Yrotation Zrotation
										JOINT LeftFinger1Proximal
										{
											OFFSET 3.454681 -0.000031 1.994549
											CHANNELS 6 Xposition Yposition Zposition Xrotation Yrotation Zrotation
											JOINT LeftFinger1Distal
											{
												OFFSET 3.027786 -0.000031 -0.000037
												CHANNELS 6 Xposition Yposition Zposition Xrotation Yrotation Zrotation
												End Site
												{
													OFFSET -3.027786 0.000015 0.000004
												}
											}
										}
									}
								}
							}
						}
					}
				}
			}
		}
	}
	JOINT RightThigh
	{
		OFFSET -8.099951 0.000000 -0.000000
		CHANNELS 6 Xposition Yposition Zposition Xrotation Yrotation Zrotation
		JOINT RightShin
		{
			OFFSET 0.000002 -43.200016 0.000017
			CHANNELS 6 Xposition Yposition Zposition Xrotation Yrotation Zrotation
			JOINT RightFoot
			{
				OFFSET -0.062555 -43.299969 0.000014
				CHANNELS 6 Xposition Yposition Zposition Xrotation Yrotation Zrotation
				JOINT RightToe
				{
					OFFSET -0.000010 -6.239449 13.169401
					CHANNELS 6 Xposition Yposition Zposition Xrotation Yrotation Zrotation
					End Site
					{
						OFFSET 0.000008 0.000001 -14.572708
					}
				}
			}
		}
	}
	JOINT LeftThigh
	{
		OFFSET 8.099950 0.000000 -0.000001
		CHANNELS 6 Xposition Yposition Zposition Xrotation Yrotation Zrotation
		JOINT LeftShin
		{
			OFFSET -0.000025 -43.199982 0.000016
			CHANNELS 6 Xposition Yposition Zposition Xrotation Yrotation Zrotation
			JOINT LeftFoot
			{
				OFFSET 0.062445 -43.299973 0.000030
				CHANNELS 6 Xposition Yposition Zposition Xrotation Yrotation Zrotation
				JOINT LeftToe
				{
					OFFSET -0.000023 -6.239417 13.169409
					CHANNELS 6 Xposition Yposition Zposition Xrotation Yrotation Zrotation
					End Site
					{
						OFFSET -0.000013 -0.000016 -14.572701
					}
				}
			}
		}
	}
}
MOTION
Frames: 3
Frame Time: 0.033333
-0.568990 94.513031 99.678062 10.562569 14.689575 -3.065615 0.000031 8.483849 -3.948274 0.000001 -0.000001 0.000014 0.000002 7.550003 -0.000004 -0.000000 -0.000001 -0.000000 0.000000 7.550003 0.000001 -0.000000 -0.000001 -0.000000 -0.000025 12.748764 -0.000006 -0.000003 -23.038414 0.000002 0.000002 20.150314 -0.000040 -0.000001 -0.000000 -0.000000 -0.000009 11.100952 0.000010 -0.118691 0.002159 -0.040144 -6.999997 12.368061 1.903778 0.000085 0.000001 -0.000053 -13.607779 -0.000034 -0.000012 -15.892889 -5.264896 82.164177 -27.102177 -0.000044 -0.000032 1.071845 19.839121 -6.946461 -28.299984 -0.000051 -0.000081 -0.000001 -0.000000 -0.000004 -2.077996 -0.102974 2.784899 58.687294 -1.786363 -12.439754 -3.454677 -0.000018 1.994536 0.384972 23.648587 6.196480 -3.027769 -0.000018 0.000010 0.354967 -6.350828 6.390199 -2.487841 -0.102977 -1.487601 -5.877648 -0.587592 5.118793 -4.460025 0.000004 -1.623333 -13.699210 -10.889724 13.511407 -3.499989 -0.000024 -0.000006 -0.000029 -0.000001 18.000006 -2.199986 0.000072 -0.000026 -0.000023 -0.000003 18.000023 -2.742979 -0.102998 -0.547549 -2.720097 -0.128111 2.547552 -4.956041 -0.000020 -0.873907 -8.112386 -1.343029 16.789783 -4.300011 0.000004 0.000015 -0.000034 0.000001 18.000011 -2.773186 -0.000013 0.000005 -0.000033 -0.000002 18.000004 -2.767416 -0.102984 0.544731 0.000002 -0.000016 -0.000102 -5.364975 -0.000012 -0.000025 -1.673211 5.134989 18.075083 -4.700001 0.000003 -0.000021 -0.000027 0.000005 18.000007 -3.099991 -0.000003 -0.000010 -0.000025 0.000004 18.000014 -2.645564 -0.103008 1.603423 1.230944 -0.002500 -0.217159 -5.331570 -0.000012 0.940084 0.562046 8.287817 17.910744 -4.499978 0.000006 -0.000006 -0.000023 -0.000004 18.000012 -2.768502 0.000006 -0.000005 -0.000027 -0.000005 18.000014 7.000000 12.368057 1.903782 -0.000009 0.000005 0.000000 13.607779 -0.000003 -0.000017 -0.819515 -4.385504 -72.397178 27.102148 -0.000023 0.000031 0.254177 -8.439132 3.302509 28.300009 -0.000013 -0.000113 -0.000001 0.000001 0.000024 2.487845 -0.102954 -1.487608 -5.877494 0.587635 -5.118828 4.460038 -0.000015 -1.623334 -13.699350 10.889688 -13.511462 3.500008 -0.000023 -0.000020 0.000062 -0.000011 -18.000018 2.199994 0.000038 -0.000002 -0.000119 -0.000039 -18.000018 2.742963 -0.102969 -0.547543 -2.719960 0.128174 -2.547589 4.956047 -0.000047 -0.873905 -8.112523 1.342983 -16.789819 4.299999 0.000019 -0.000005 -0.000026 0.000002 -17.999985 2.773190 -0.000013 -0.000015 -0.000022 0.000012 -18.000001 2.767419 -0.102965 0.544737 0.000000 0.000010 0.000033 5.364963 -0.000015 -0.000040 -1.673212 -5.134986 -18.075088 4.699975 0.000036 -0.000023 -0.000038 0.000006 -18.000048 3.100006 -0.000002 -0.000012 -0.000033 -0.000003 -17.999992 2.645573 -0.102976 1.603412 1.231095 0.002567 0.217096 5.331600 0.000002 0.940088 0.561896 -8.287864 -17.910723 4.499970 0.000008 0.000007 -0.000027 0.000004 -18.000041 2.768490 -0.000011 -0.000011 -0.000032 0.000001 -18.000018 2.077997 -0.102985 2.784871 58.687328 1.786370 12.439766 3.454667 -0.000004 1.994545 0.385059 -23.648599 -6.196390 3.027806 -0.000034 0.000036 0.354926 6.350773 -6.390227 -8.099951 -0.000000 0.000000 20.661059 -4.721183 8.135470 0.000002 -43.200016 0.000021 -0.000021 0.009546 0.082774 -0.062554 -43.299988 0.000016 -10.962910 -0.018005 -1.351743 -0.000009 -6.239439 13.169406 0.621644 0.540091 0.000004 8.099948 -0.000008 -0.000001 0.573088 2.540889 1.131149 -0.000030 -43.199986 0.000026 10.392789 -0.008926 -0.035032 0.062439 -43.299976 0.000026 -3.680017 -0.047325 -0.349575 -0.000024 -6.239415 13.169415 -13.393810 0.180441 0.000028 
-0.664207 94.458374 100.123337 10.621538 14.934227 -3.079543 0.000028 8.483841 -3.948270 0.000001 -0.000001 0.000014 -0.000004 7.549995 -0.000000 -0.000000 -0.000003 0.000000 -0.000004 7.550003 -0.000007 -0.000000 -0.000001 0.000000 -0.000029 12.748734 -0.000014 -0.000005 -23.308625 0.000002 0.000000 20.150375 -0.000034 0.000000 -0.000001 0.000001 -0.000009 11.100983 -0.000001 -0.247527 -0.035158 -0.058055 -6.999999 12.368107 1.903783 0.000085 -0.000000 -0.000053 -13.607792 -0.000027 0.000001 -13.630884 3.713262 82.358380 -27.102154 -0.000040 -0.000058 0.977640 17.987573 -7.023228 -28.299984 -0.000036 -0.000127 -0.000000 -0.000004 -0.000008 -2.077991 -0.102956 2.784878 58.687308 -1.786366 -12.439758 -3.454665 -0.000031 1.994530 0.384981 23.648586 6.196479 -3.027772 -0.000035 -0.000006 0.354967 -6.350829 6.390201 -2.487856 -0.102974 -1.487608 -5.877654 -0.587585 5.118790 -4.460036 -0.000038 -1.623346 -13.699205 -10.889727 13.511406 -3.499992 -0.000022 -0.000017 -0.000027 0.000003 18.000007 -2.199993 0.000026 0.000014 -0.000020 0.000001 18.000021 -2.742985 -0.102978 -0.547549 -2.720100 -0.128110 2.547551 -4.956045 -0.000014 -0.873921 -8.112397 -1.343031 16.789776 -4.300007 0.000008 0.000002 -0.000033 0.000003 18.000012 -2.773167 -0.000009 0.000016 -0.000038 -0.000005 18.000006 -2.767426 -0.102979 0.544735 -0.000001 -0.000014 -0.000101 -5.364952 -0.000012 -0.000033 -1.673210 5.134990 18.075081 -4.700012 -0.000010 -0.000001 -0.000033 0.000003 18.000007 -3.099964 -0.000006 0.000000 -0.000027 0.000002 18.000016 -2.645570 -0.103001 1.603425 1.230944 -0.002502 -0.217160 -5.331601 -0.000029 0.940067 0.562041 8.287811 17.910733 -4.499969 0.000008 0.000006 -0.000027 -0.000003 18.000012 -2.768486 -0.000009 0.000005 -0.000026 -0.000008 18.000011 7.000000 12.368103 1.903800 -0.000010 0.000004 0.000000 13.607778 -0.000026 -0.000012 0.390109 -3.538320 -73.640648 27.102150 -0.000029 0.000025 0.156714 -9.064194 1.887066 28.300001 -0.000013 -0.000095 0.000000 0.000001 0.000024 2.487832 -0.102956 -1.487617 -5.877495 0.587633 -5.118829 4.460057 -0.000013 -1.623349 -13.699346 10.889681 -13.511462 3.500000 -0.000003 -0.000008 0.000056 -0.000013 -18.000019 2.199979 0.000024 -0.000000 -0.000125 -0.000039 -18.000018 2.742972 -0.102997 -0.547550 -2.719960 0.128171 -2.547590 4.956039 -0.000024 -0.873904 -8.112515 1.342983 -16.789824 4.300018 0.000021 -0.000001 -0.000033 -0.000000 -17.999990 2.773167 -0.000007 -0.000004 -0.000024 0.000013 -18.000006 2.767432 -0.102979 0.544725 0.000001 0.000011 0.000034 5.364971 -0.000013 -0.000030 -1.673212 -5.134987 -18.075085 4.699975 0.000028 -0.000013 -0.000027 0.000007 -18.000055 3.100013 0.000003 -0.000011 -0.000035 -0.000005 -17.999990 2.645561 -0.103007 1.603415 1.231093 0.002566 0.217095 5.331596 0.000008 0.940083 0.561894 -8.287861 -17.910730 4.499981 0.000009 -0.000008 -0.000018 0.000007 -18.000043 2.768486 0.000006 -0.000019 -0.000027 -0.000003 -18.000018 2.078000 -0.102976 2.784861 58.687321 1.786374 12.439751 3.454674 -0.000023 1.994560 0.385048 -23.648601 -6.196399 3.027801 -0.000047 0.000012 0.354921 6.350775 -6.390228 -8.099954 -0.000006 -0.000004 20.801599 -4.404937 8.300042 0.000001 -43.200020 0.000019 -0.000039 0.009415 0.082773 -0.062553 -43.299992 0.000011 -10.893197 -0.021054 -1.577426 -0.000009 -6.239439 13.169401 0.640643 0.560124 0.000003 8.099948 -0.000000 0.000003 0.753313 2.562247 1.265867 -0.000027 -43.199993 0.000028 10.392797 -0.009072 -0.035405 0.062442 -43.299980 0.000015 -3.648511 -0.036169 -0.258916 -0.000023 -6.239411 13.169409 -13.603592 0.242010 0.000030 
-0.737641 94.381180 100.552925 10.562137 15.192265 -3.127296 0.000027 8.483841 -3.948285 -0.000000 -0.000002 0.000014 0.000004 7.550003 0.000000 0.000001 0.000000 -0.000000 0.000001 7.549995 0.000001 0.000001 -0.000001 -0.000000 -0.000028 12.748734 0.000009 -0.000005 -23.603300 0.000002 0.000002 20.150360 -0.000042 0.000000 0.000001 -0.000001 -0.000010 11.100952 0.000003 -0.255717 -0.048830 -0.070164 -6.999998 12.368107 1.903785 0.000086 0.000000 -0.000053 -13.607790 -0.000013 -0.000001 -11.848824 9.275434 82.482027 -27.102158 -0.000041 -0.000036 0.747953 17.222370 -5.625004 -28.299984 -0.000040 -0.000095 -0.000001 -0.000004 -0.000005 -2.077974 -0.102975 2.784894 58.687301 -1.786370 -12.439748 -3.454676 -0.000018 1.994529 0.384978 23.648582 6.196476 -3.027776 -0.000013 0.000017 0.354967 -6.350826 6.390196 -2.487854 -0.102974 -1.487591 -5.877652 -0.587585 5.118792 -4.460013 -0.000015 -1.623340 -13.699208 -10.889721 13.511410 -3.499992 -0.000035 -0.000025 -0.000034 0.000002 18.000006 -2.200005 0.000041 -0.000002 -0.000025 0.000002 18.000018 -2.742975 -0.102996 -0.547527 -2.720100 -0.128108 2.547553 -4.956041 -0.000000 -0.873904 -8.112387 -1.343029 16.789776 -4.300018 0.000008 0.000012 -0.000031 0.000001 18.000011 -2.773174 0.000002 0.000005 -0.000033 -0.000000 18.000012 -2.767422 -0.102994 0.544750 0.000001 -0.000014 -0.000103 -5.364964 -0.000012 -0.000038 -1.673210 5.134990 18.075088 -4.700001 0.000005 -0.000019 -0.000032 0.000005 18.000004 -3.099987 -0.000018 -0.000004 -0.000031 0.000002 18.000006 -2.645567 -0.103021 1.603429 1.230944 -0.002499 -0.217158 -5.331563 0.000017 0.940081 0.562047 8.287816 17.910738 -4.499969 0.000021 -0.000017 -0.000025 0.000002 18.000007 -2.768498 -0.000009 0.000003 -0.000028 -0.000004 18.000011 7.000002 12.368103 1.903789 -0.000009 0.000005 -0.000000 13.607800 -0.000014 -0.000011 1.541734 -3.145102 -74.445524 27.102121 -0.000026 0.000034 0.017924 -9.999395 0.195758 28.299978 0.000002 -0.000105 0.000000 0.000001 0.000024 2.487851 -0.102972 -1.487627 -5.877495 0.587636 -5.118829 4.460053 -0.000021 -1.623348 -13.699340 10.889682 -13.511464 3.499993 -0.000006 -0.000017 0.000059 -0.000014 -18.000016 2.199971 0.000019 0.000000 -0.000113 -0.000040 -18.000018 2.742970 -0.102997 -0.547550 -2.719961 0.128174 -2.547589 4.956066 -0.000028 -0.873892 -8.112514 1.342984 -16.789819 4.299999 0.000015 -0.000016 -0.000026 0.000001 -17.999983 2.773190 -0.000013 0.000004 -0.000030 0.000011 -18.000001 2.767416 -0.102966 0.544726 -0.000000 0.000011 0.000035 5.364963 -0.000013 -0.000040 -1.673208 -5.134987 -18.075088 4.699997 0.000030 -0.000003 -0.000030 0.000004 -18.000057 3.100002 0.000022 -0.000021 -0.000030 -0.000005 -17.999990 2.645573 -0.102993 1.603416 1.231093 0.002566 0.217096 5.331577 0.000012 0.940075 0.561899 -8.287866 -17.910728 4.499962 0.000002 -0.000010 -0.000023 0.000006 -18.000045 2.768474 -0.000009 -0.000007 -0.000026 -0.000003 -18.000009 2.077989 -0.102973 2.784865 58.687328 1.786367 12.439761 3.454662 -0.000042 1.994562 0.385055 -23.648601 -6.196395 3.027814 -0.000014 0.000028 0.354924 6.350773 -6.390226 -8.099953 -0.000006 -0.000000 21.020056 -3.821560 8.498907 -0.000002 -43.200020 0.000027 -0.000002 0.009412 0.082778 -0.062557 -43.299992 0.000019 -10.814504 -0.027266 -1.847492 -0.000007 -6.239439 13.169395 0.659363 0.592529 0.000003 8.099948 0.000011 -0.000005 0.707874 2.657527 1.471755 -0.000027 -43.199982 0.000034 11.052517 -0.008826 -0.033250 0.062441 -43.299976 0.000025 -3.877834 -0.030962 -0.216221 -0.000021 -6.239416 13.169397 -13.859919 0.297337 0.000030 
